<svg id="Layer_1" enable-background="new 0 0 511.998 511.998" height="512" viewBox="0 0 511.998 511.998" width="512" xmlns="http://www.w3.org/2000/svg"><path d="m409.698 172.777c-7.98-2.337-16.349 2.239-18.687 10.225-2.338 7.985 2.24 16.353 10.223 18.691 48.952 14.336 80.584 36.07 80.584 55.37 0 16.523-22.695 34.777-60.711 48.829-18.758 6.934-40.224 12.53-63.539 16.671 2.208-21.43 3.349-43.774 3.349-66.563 0-60.739-8.105-118.312-22.934-163.828l11.834 4.481c1.756.665 3.558.98 5.329.98 6.082 0 11.809-3.71 14.089-9.735 2.945-7.782-.975-16.477-8.754-19.423l-37.967-14.375c-6.037-11.869-12.616-21.921-19.685-30.013-9.599-10.988-25.37-24.087-45.992-24.087s-36.393 13.099-45.992 24.086c-11.811 13.521-22.268 32.471-31.081 56.324-8.613 23.312-15.309 50.351-19.881 79.72-29.257 4.572-56.197 11.254-79.432 19.842-23.848 8.814-42.793 19.274-56.312 31.087-10.985 9.601-24.081 25.375-24.081 46.002 0 20.628 13.096 36.402 24.081 46.002 13.518 11.814 32.464 22.274 56.312 31.088 35.222 13.02 78.948 21.665 126.379 25.203l-8.179 7.786c-6.026 5.737-6.262 15.272-.528 21.299 2.96 3.111 6.934 4.679 10.913 4.679 3.73 0 7.466-1.377 10.381-4.152l29.253-27.846c2.438.026 4.88.044 7.329.044 22.687 0 44.934-1.131 66.276-3.321-4.136 23.222-9.715 44.604-16.622 63.298-14.049 38.025-32.298 60.725-48.817 60.725-13.709 0-28.964-15.985-41.852-43.856-3.493-7.551-12.445-10.844-19.993-7.349-7.549 3.493-10.839 12.446-7.347 19.997 23.443 50.696 50.566 61.338 69.192 61.338 20.622 0 36.393-13.099 45.992-24.086 11.811-13.521 22.268-32.471 31.08-56.324 8.426-22.805 15.014-49.18 19.577-77.81 28.728-4.565 55.191-11.17 78.062-19.624 23.848-8.814 42.793-19.275 56.312-31.088 10.985-9.6 24.081-25.374 24.081-46.002 0-35.043-36.31-64.977-102.242-84.285zm-153.699 158.26c-2.106 0-4.206-.012-6.303-.032l-26.029-29.919c-5.461-6.277-14.976-6.938-21.249-1.475-6.275 5.462-6.936 14.978-1.475 21.254l7.299 8.39c-44.29-3.351-84.871-11.357-117.35-23.363-38.016-14.052-60.711-32.305-60.711-48.829 0-16.522 22.695-34.776 60.711-48.828 19.159-7.082 41.136-12.773 65.029-16.939-2.084 20.863-3.165 42.572-3.165 64.704 0 3.916.034 7.902.103 11.848.143 8.23 6.857 14.803 15.054 14.803.089 0 .178-.001.268-.002 8.317-.145 14.942-7.006 14.798-15.325-.066-3.771-.099-7.582-.099-11.324 0-23.804 1.294-47.032 3.784-69.095 22.135-2.51 45.445-3.814 69.336-3.814 10.466 0 14.902.136 24.722.604 8.309.356 15.365-6.021 15.762-14.331.395-8.311-6.02-15.369-14.328-15.765-10.213-.486-15.152-.638-26.156-.638-22.222 0-44.019 1.09-64.96 3.193 4.168-23.997 9.874-46.067 16.979-65.298 14.049-38.024 32.299-60.725 48.818-60.725 12.605 0 26.216 13.23 38.201 36.389l-15.581 36.214c-3.288 7.642.24 16.505 7.881 19.793 1.942.836 3.96 1.231 5.947 1.231 5.834 0 11.388-3.412 13.842-9.114l3.677-8.546c12.938 41.789 19.989 94.274 19.989 149.901 0 24.511-1.374 48.408-4.011 71.054-22.566 2.62-46.37 3.984-70.783 3.984z"/></svg>