<?xml version="1.0" encoding="iso-8859-1"?>
<!-- Generator: Adobe Illustrator 19.0.0, SVG Export Plug-In . SVG Version: 6.00 Build 0)  -->
<svg version="1.1" id="Capa_1" xmlns="http://www.w3.org/2000/svg" xmlns:xlink="http://www.w3.org/1999/xlink" x="0px" y="0px"
	 viewBox="0 0 512 512" style="enable-background:new 0 0 512 512;" xml:space="preserve">
<g>
	<g>
		<path d="M501.333,0H10.667C4.771,0,0,4.771,0,10.667v42.667C0,59.229,4.771,64,10.667,64h10.667v437.333
			C21.333,507.229,26.104,512,32,512c14.177,0,21.417-8.271,26.708-14.302c4.656-5.313,6.51-7.031,10.677-7.031
			c4.156,0,6.01,1.719,10.667,7.031C85.344,503.729,92.583,512,106.771,512c14.177,0,21.708-8.615,26.698-14.313
			c4.635-5.302,6.49-7.021,10.625-7.021c4.115,0,5.958,1.719,10.594,7.021c4.969,5.698,12.49,14.313,26.646,14.313
			c3.698,0,7.125-1.917,9.073-5.063s2.125-7.073,0.469-10.375L118.478,351.77c5.329-0.598,9.522-4.947,9.522-10.436
			c0-5.896-4.771-10.667-10.667-10.667c-1.073,0-2.263-0.081-3.367-0.099c36.534-28.81,61.931-70.367,70.284-116.339L211.564,64
			h88.872l27.314,150.229c8.353,45.974,33.751,87.533,70.28,116.333c-1.118,0.018-2.251,0.103-3.363,0.104
			c-5.896,0-10.667,4.781-10.667,10.667c0,5.477,4.182,9.815,9.486,10.428l-72.402,144.415c-0.969,1.927-1.281,4.49-0.979,6.625
			c0.729,5.271,5.24,9.198,10.563,9.198c14.177,0,21.417-8.271,26.708-14.302c4.656-5.313,6.51-7.031,10.677-7.031
			c4.156,0,6.01,1.719,10.667,7.031c5.29,6.032,12.53,14.303,26.718,14.303c14.177,0,21.708-8.615,26.698-14.313
			c4.635-5.302,6.49-7.021,10.625-7.021c4.115,0,5.958,1.719,10.594,7.021C458.323,503.385,465.844,512,480,512
			c5.896,0,10.667-4.771,10.667-10.667V64h10.667C507.229,64,512,59.229,512,53.333V10.667C512,4.771,507.229,0,501.333,0z"/>
	</g>
</g>
<g>
</g>
<g>
</g>
<g>
</g>
<g>
</g>
<g>
</g>
<g>
</g>
<g>
</g>
<g>
</g>
<g>
</g>
<g>
</g>
<g>
</g>
<g>
</g>
<g>
</g>
<g>
</g>
<g>
</g>
</svg>
