<svg height="512" viewBox="0 0 36 60" width="512" xmlns="http://www.w3.org/2000/svg"><g id="Page-1" fill="none" fill-rule="evenodd"><g id="001---Mobie-AR" fill="rgb(0,0,0)" fill-rule="nonzero"><path id="Shape" d="m4 60h28c2.209139 0 4-1.790861 4-4v-52c0-2.209139-1.790861-4-4-4h-28c-2.209139 0-4 1.790861-4 4v52c0 2.209139 1.790861 4 4 4zm21.692-58-1.282 1.368c-.378896.40269492-.907076.63133176-1.46.632h-9.9c-.5527743.00000995-1.0809024-.22876112-1.459-.632l-1.282-1.368zm-23.692 2c0-1.1045695.8954305-2 2-2h3.567l2.565 2.735c.7567936.80574999 1.8125738 1.2634477 2.918 1.265h9.9c1.1054015-.00208587 2.1611681-.45925919 2.919-1.264l2.564-2.736h3.567c1.1045695 0 2 .8954305 2 2v47c0 1.1045695-.8954305 2-2 2h-28c-1.1045695 0-2-.8954305-2-2zm0 50.444c.60534654.3599241 1.29574677.5518554 2 .556h28c.7042532-.0041446 1.3946535-.1960759 2-.556v1.556c0 1.1045695-.8954305 2-2 2h-28c-1.1045695 0-2-.8954305-2-2z"/><path id="Shape" d="m9 18v9c-.00026048.4171213.25841773.7905905.649.937l8 3c.2258574.0835314.4741426.0835314.7 0l8-3c.3913699-.1457526.6509487-.5193707.651-.937v-9c.0002605-.4171213-.2584177-.7905905-.649-.937l-8-3c-.2258574-.0835314-.4741426-.0835314-.7 0l-8 3c-.39136988.1457526-.65094875.5193707-.651.937zm16 8.307-6 2.25v-6.864l6-2.25zm-7-10.239 5.152 1.932-5.152 1.932-5.152-1.932zm-7 3.375 6 2.25v6.864l-6-2.25z"/><path id="Shape" d="m8 16c.55228475 0 1-.4477153 1-1v-2h2c.5522847 0 1-.4477153 1-1s-.4477153-1-1-1h-3c-.55228475 0-1 .4477153-1 1v3c0 .5522847.44771525 1 1 1z"/><path id="Shape" d="m25 13h2v2c0 .5522847.4477153 1 1 1s1-.4477153 1-1v-3c0-.5522847-.4477153-1-1-1h-3c-.5522847 0-1 .4477153-1 1s.4477153 1 1 1z"/><path id="Shape" d="m8 35h3c.5522847 0 1-.4477153 1-1s-.4477153-1-1-1h-2v-2c0-.5522847-.44771525-1-1-1s-1 .4477153-1 1v3c0 .5522847.44771525 1 1 1z"/><path id="Shape" d="m28 30c-.5522847 0-1 .4477153-1 1v2h-2c-.5522847 0-1 .4477153-1 1s.4477153 1 1 1h3c.5522847 0 1-.4477153 1-1v-3c0-.5522847-.4477153-1-1-1z"/><path id="Shape" d="m11 48h14c2.209139 0 4-1.790861 4-4s-1.790861-4-4-4h-10c-.5522847 0-1 .4477153-1 1s.4477153 1 1 1h10c1.1045695 0 2 .8954305 2 2s-.8954305 2-2 2h-14c-1.1045695 0-2-.8954305-2-2s.8954305-2 2-2c.5522847 0 1-.4477153 1-1s-.4477153-1-1-1c-2.209139 0-4 1.790861-4 4s1.790861 4 4 4z"/></g></g></svg>