<svg id="Capa_1" enable-background="new 0 0 512 512" height="512" viewBox="0 0 512 512" width="512" xmlns="http://www.w3.org/2000/svg"><g><circle cx="256" cy="379.396" r="19.429"/><path d="m512 76.533v-30h-137.714v30h53.856v48.071h-25.214v25.214h-85.571l-26.929-53.857h-68.857l-26.929 53.857h-85.571v-25.214h-25.214v-48.071h53.857v-30h-137.714v30h53.857v48.071h-25.214v40.214c0 22.21 18.005 40.214 40.214 40.214 16.906 0 31.365-10.437 37.312-25.214h54.046l19.428 38.857h152.714l19.428-38.857h54.046c5.947 14.777 20.406 25.214 37.312 25.214 22.21 0 40.214-18.004 40.214-40.214v-40.214h-25.215v-48.071z"/><path d="m342.072 293.325h-47.553v-44.649h-72.947v44.649h-51.643c-19.014 0-34.429 15.414-34.429 34.428v103.286c0 19.014 15.414 34.429 34.429 34.429h172.143c19.014 0 34.428-15.414 34.428-34.429v-103.286c0-19.014-15.414-34.428-34.428-34.428zm-86.072 135.5c-27.255 0-49.429-22.174-49.429-49.429s22.174-49.429 49.429-49.429 49.429 22.174 49.429 49.429-22.174 49.429-49.429 49.429z"/></g></svg>