<?xml version="1.0" encoding="utf-8"?>
<!-- Generator: Adobe Illustrator 20.1.0, SVG Export Plug-In . SVG Version: 6.00 Build 0)  -->
<svg version="1.1" id="Layer_1" xmlns="http://www.w3.org/2000/svg" xmlns:xlink="http://www.w3.org/1999/xlink" x="0px" y="0px"
	 viewBox="0 0 1796 156" style="enable-background:new 0 0 1796 156;" xml:space="preserve">
<style type="text/css">
	.st0{fill:none;}
	.st1{fill:#fff;}
	.st2{fill:url(#Mid_Grey);}
	.st3{fill:url(#);}
</style>
<pattern  x="-2" y="-2" width="100" height="100" patternUnits="userSpaceOnUse" id="Mid_Grey" viewBox="0 -100 100 100" style="overflow:visible;">
	<g>
		<rect y="-100" class="st0" width="100" height="100"/>
		<path class="st1" d="M35-36c-0.6,0-1,0.4-1,1c0,0.6,0.4,1,1,1s1-0.4,1-1C36-35.6,35.6-36,35-36z M35-26c-0.6,0-1,0.4-1,1
			c0,0.6,0.4,1,1,1s1-0.4,1-1C36-25.6,35.6-26,35-26z M35-16c-0.6,0-1,0.4-1,1c0,0.6,0.4,1,1,1s1-0.4,1-1C36-15.6,35.6-16,35-16z
			 M35-56c-0.6,0-1,0.4-1,1c0,0.6,0.4,1,1,1s1-0.4,1-1C36-55.6,35.6-56,35-56z M35-46c-0.6,0-1,0.4-1,1c0,0.6,0.4,1,1,1s1-0.4,1-1
			C36-45.6,35.6-46,35-46z M35-6c-0.6,0-1,0.4-1,1c0,0.6,0.4,1,1,1s1-0.4,1-1C36-5.6,35.6-6,35-6z M40-61c-0.6,0-1,0.4-1,1
			c0,0.6,0.4,1,1,1s1-0.4,1-1C41-60.6,40.6-61,40-61z M40-41c-0.6,0-1,0.4-1,1c0,0.6,0.4,1,1,1s1-0.4,1-1C41-40.6,40.6-41,40-41z
			 M35-96c-0.6,0-1,0.4-1,1c0,0.6,0.4,1,1,1s1-0.4,1-1C36-95.6,35.6-96,35-96z M40-71c-0.6,0-1,0.4-1,1c0,0.6,0.4,1,1,1s1-0.4,1-1
			C41-70.6,40.6-71,40-71z M40-51c-0.6,0-1,0.4-1,1c0,0.6,0.4,1,1,1s1-0.4,1-1C41-50.6,40.6-51,40-51z M40-31c-0.6,0-1,0.4-1,1
			c0,0.6,0.4,1,1,1s1-0.4,1-1C41-30.6,40.6-31,40-31z M40-21c-0.6,0-1,0.4-1,1c0,0.6,0.4,1,1,1s1-0.4,1-1C41-20.6,40.6-21,40-21z
			 M30-71c-0.6,0-1,0.4-1,1c0,0.6,0.4,1,1,1s1-0.4,1-1C31-70.6,30.6-71,30-71z M30-21c-0.6,0-1,0.4-1,1c0,0.6,0.4,1,1,1s1-0.4,1-1
			C31-20.6,30.6-21,30-21z M30-41c-0.6,0-1,0.4-1,1c0,0.6,0.4,1,1,1s1-0.4,1-1C31-40.6,30.6-41,30-41z M30-51c-0.6,0-1,0.4-1,1
			c0,0.6,0.4,1,1,1s1-0.4,1-1C31-50.6,30.6-51,30-51z M30-31c-0.6,0-1,0.4-1,1c0,0.6,0.4,1,1,1s1-0.4,1-1C31-30.6,30.6-31,30-31z
			 M30-61c-0.6,0-1,0.4-1,1c0,0.6,0.4,1,1,1s1-0.4,1-1C31-60.6,30.6-61,30-61z M25-96c-0.6,0-1,0.4-1,1c0,0.6,0.4,1,1,1s1-0.4,1-1
			C26-95.6,25.6-96,25-96z M35-86c-0.6,0-1,0.4-1,1c0,0.6,0.4,1,1,1s1-0.4,1-1C36-85.6,35.6-86,35-86z M25-6c-0.6,0-1,0.4-1,1
			c0,0.6,0.4,1,1,1s1-0.4,1-1C26-5.6,25.6-6,25-6z M35-66c-0.6,0-1,0.4-1,1c0,0.6,0.4,1,1,1s1-0.4,1-1C36-65.6,35.6-66,35-66z
			 M40-81c-0.6,0-1,0.4-1,1c0,0.6,0.4,1,1,1s1-0.4,1-1C41-80.6,40.6-81,40-81z M30-11c-0.6,0-1,0.4-1,1c0,0.6,0.4,1,1,1s1-0.4,1-1
			C31-10.6,30.6-11,30-11z M30-91c-0.6,0-1,0.4-1,1c0,0.6,0.4,1,1,1s1-0.4,1-1C31-90.6,30.6-91,30-91z M55-26c-0.6,0-1,0.4-1,1
			c0,0.6,0.4,1,1,1s1-0.4,1-1C56-25.6,55.6-26,55-26z M35-76c-0.6,0-1,0.4-1,1c0,0.6,0.4,1,1,1s1-0.4,1-1C36-75.6,35.6-76,35-76z
			 M50-71c-0.6,0-1,0.4-1,1c0,0.6,0.4,1,1,1s1-0.4,1-1C51-70.6,50.6-71,50-71z M50-81c-0.6,0-1,0.4-1,1c0,0.6,0.4,1,1,1s1-0.4,1-1
			C51-80.6,50.6-81,50-81z M50-41c-0.6,0-1,0.4-1,1c0,0.6,0.4,1,1,1s1-0.4,1-1C51-40.6,50.6-41,50-41z M50-61c-0.6,0-1,0.4-1,1
			c0,0.6,0.4,1,1,1s1-0.4,1-1C51-60.6,50.6-61,50-61z M50-51c-0.6,0-1,0.4-1,1c0,0.6,0.4,1,1,1s1-0.4,1-1C51-50.6,50.6-51,50-51z
			 M50-11c-0.6,0-1,0.4-1,1c0,0.6,0.4,1,1,1s1-0.4,1-1C51-10.6,50.6-11,50-11z M50-91c-0.6,0-1,0.4-1,1c0,0.6,0.4,1,1,1s1-0.4,1-1
			C51-90.6,50.6-91,50-91z M55-46c-0.6,0-1,0.4-1,1c0,0.6,0.4,1,1,1s1-0.4,1-1C56-45.6,55.6-46,55-46z M55-56c-0.6,0-1,0.4-1,1
			c0,0.6,0.4,1,1,1s1-0.4,1-1C56-55.6,55.6-56,55-56z M55-36c-0.6,0-1,0.4-1,1c0,0.6,0.4,1,1,1s1-0.4,1-1C56-35.6,55.6-36,55-36z
			 M55-76c-0.6,0-1,0.4-1,1c0,0.6,0.4,1,1,1s1-0.4,1-1C56-75.6,55.6-76,55-76z M55-66c-0.6,0-1,0.4-1,1c0,0.6,0.4,1,1,1s1-0.4,1-1
			C56-65.6,55.6-66,55-66z M55-86c-0.6,0-1,0.4-1,1c0,0.6,0.4,1,1,1s1-0.4,1-1C56-85.6,55.6-86,55-86z M45-6c-0.6,0-1,0.4-1,1
			c0,0.6,0.4,1,1,1s1-0.4,1-1C46-5.6,45.6-6,45-6z M45-66c-0.6,0-1,0.4-1,1c0,0.6,0.4,1,1,1s1-0.4,1-1C46-65.6,45.6-66,45-66z
			 M45-46c-0.6,0-1,0.4-1,1c0,0.6,0.4,1,1,1s1-0.4,1-1C46-45.6,45.6-46,45-46z M45-56c-0.6,0-1,0.4-1,1c0,0.6,0.4,1,1,1s1-0.4,1-1
			C46-55.6,45.6-56,45-56z M45-86c-0.6,0-1,0.4-1,1c0,0.6,0.4,1,1,1s1-0.4,1-1C46-85.6,45.6-86,45-86z M45-76c-0.6,0-1,0.4-1,1
			c0,0.6,0.4,1,1,1s1-0.4,1-1C46-75.6,45.6-76,45-76z M40-11c-0.6,0-1,0.4-1,1c0,0.6,0.4,1,1,1s1-0.4,1-1C41-10.6,40.6-11,40-11z
			 M45-36c-0.6,0-1,0.4-1,1c0,0.6,0.4,1,1,1s1-0.4,1-1C46-35.6,45.6-36,45-36z M40-91c-0.6,0-1,0.4-1,1c0,0.6,0.4,1,1,1s1-0.4,1-1
			C41-90.6,40.6-91,40-91z M45-96c-0.6,0-1,0.4-1,1c0,0.6,0.4,1,1,1s1-0.4,1-1C46-95.6,45.6-96,45-96z M50-31c-0.6,0-1,0.4-1,1
			c0,0.6,0.4,1,1,1s1-0.4,1-1C51-30.6,50.6-31,50-31z M50-21c-0.6,0-1,0.4-1,1c0,0.6,0.4,1,1,1s1-0.4,1-1C51-20.6,50.6-21,50-21z
			 M45-16c-0.6,0-1,0.4-1,1c0,0.6,0.4,1,1,1s1-0.4,1-1C46-15.6,45.6-16,45-16z M45-26c-0.6,0-1,0.4-1,1c0,0.6,0.4,1,1,1s1-0.4,1-1
			C46-25.6,45.6-26,45-26z M30-81c-0.6,0-1,0.4-1,1c0,0.6,0.4,1,1,1s1-0.4,1-1C31-80.6,30.6-81,30-81z M5-6C4.4-6,4-5.6,4-5
			c0,0.6,0.4,1,1,1s1-0.4,1-1C6-5.6,5.6-6,5-6z M5-16c-0.6,0-1,0.4-1,1c0,0.6,0.4,1,1,1s1-0.4,1-1C6-15.6,5.6-16,5-16z M5-96
			c-0.6,0-1,0.4-1,1c0,0.6,0.4,1,1,1s1-0.4,1-1C6-95.6,5.6-96,5-96z M5-26c-0.6,0-1,0.4-1,1c0,0.6,0.4,1,1,1s1-0.4,1-1
			C6-25.6,5.6-26,5-26z M10-31c-0.6,0-1,0.4-1,1c0,0.6,0.4,1,1,1s1-0.4,1-1C11-30.6,10.6-31,10-31z M5-46c-0.6,0-1,0.4-1,1
			c0,0.6,0.4,1,1,1s1-0.4,1-1C6-45.6,5.6-46,5-46z M5-36c-0.6,0-1,0.4-1,1c0,0.6,0.4,1,1,1s1-0.4,1-1C6-35.6,5.6-36,5-36z M10-21
			c-0.6,0-1,0.4-1,1c0,0.6,0.4,1,1,1s1-0.4,1-1C11-20.6,10.6-21,10-21z M10-61c-0.6,0-1,0.4-1,1c0,0.6,0.4,1,1,1s1-0.4,1-1
			C11-60.6,10.6-61,10-61z M10-81c-0.6,0-1,0.4-1,1c0,0.6,0.4,1,1,1s1-0.4,1-1C11-80.6,10.6-81,10-81z M10-71c-0.6,0-1,0.4-1,1
			c0,0.6,0.4,1,1,1s1-0.4,1-1C11-70.6,10.6-71,10-71z M10-41c-0.6,0-1,0.4-1,1c0,0.6,0.4,1,1,1s1-0.4,1-1C11-40.6,10.6-41,10-41z
			 M10-51c-0.6,0-1,0.4-1,1c0,0.6,0.4,1,1,1s1-0.4,1-1C11-50.6,10.6-51,10-51z M5-66c-0.6,0-1,0.4-1,1c0,0.6,0.4,1,1,1s1-0.4,1-1
			C6-65.6,5.6-66,5-66z M0-41v2c0.6,0,1-0.4,1-1C1-40.6,0.6-41,0-41z M0-51v2c0.6,0,1-0.4,1-1C1-50.6,0.6-51,0-51z M0-71v2
			c0.6,0,1-0.4,1-1C1-70.6,0.6-71,0-71z M0-61v2c0.6,0,1-0.4,1-1C1-60.6,0.6-61,0-61z M0-31v2c0.6,0,1-0.4,1-1C1-30.6,0.6-31,0-31z
			 M0-21v2c0.6,0,1-0.4,1-1C1-20.6,0.6-21,0-21z M5-86c-0.6,0-1,0.4-1,1c0,0.6,0.4,1,1,1s1-0.4,1-1C6-85.6,5.6-86,5-86z M5-56
			c-0.6,0-1,0.4-1,1c0,0.6,0.4,1,1,1s1-0.4,1-1C6-55.6,5.6-56,5-56z M10-91c-0.6,0-1,0.4-1,1c0,0.6,0.4,1,1,1s1-0.4,1-1
			C11-90.6,10.6-91,10-91z M5-76c-0.6,0-1,0.4-1,1c0,0.6,0.4,1,1,1s1-0.4,1-1C6-75.6,5.6-76,5-76z M0-91v2c0.6,0,1-0.4,1-1
			C1-90.6,0.6-91,0-91z M0-11v2c0.6,0,1-0.4,1-1C1-10.6,0.6-11,0-11z M0-81v2c0.6,0,1-0.4,1-1C1-80.6,0.6-81,0-81z M20-61
			c-0.6,0-1,0.4-1,1c0,0.6,0.4,1,1,1s1-0.4,1-1C21-60.6,20.6-61,20-61z M20-81c-0.6,0-1,0.4-1,1c0,0.6,0.4,1,1,1s1-0.4,1-1
			C21-80.6,20.6-81,20-81z M10-11c-0.6,0-1,0.4-1,1c0,0.6,0.4,1,1,1s1-0.4,1-1C11-10.6,10.6-11,10-11z M20-11c-0.6,0-1,0.4-1,1
			c0,0.6,0.4,1,1,1s1-0.4,1-1C21-10.6,20.6-11,20-11z M20-71c-0.6,0-1,0.4-1,1c0,0.6,0.4,1,1,1s1-0.4,1-1C21-70.6,20.6-71,20-71z
			 M25-76c-0.6,0-1,0.4-1,1c0,0.6,0.4,1,1,1s1-0.4,1-1C26-75.6,25.6-76,25-76z M25-16c-0.6,0-1,0.4-1,1c0,0.6,0.4,1,1,1s1-0.4,1-1
			C26-15.6,25.6-16,25-16z M25-56c-0.6,0-1,0.4-1,1c0,0.6,0.4,1,1,1s1-0.4,1-1C26-55.6,25.6-56,25-56z M25-36c-0.6,0-1,0.4-1,1
			c0,0.6,0.4,1,1,1s1-0.4,1-1C26-35.6,25.6-36,25-36z M25-26c-0.6,0-1,0.4-1,1c0,0.6,0.4,1,1,1s1-0.4,1-1C26-25.6,25.6-26,25-26z
			 M25-46c-0.6,0-1,0.4-1,1c0,0.6,0.4,1,1,1s1-0.4,1-1C26-45.6,25.6-46,25-46z M20-41c-0.6,0-1,0.4-1,1c0,0.6,0.4,1,1,1s1-0.4,1-1
			C21-40.6,20.6-41,20-41z M25-66c-0.6,0-1,0.4-1,1c0,0.6,0.4,1,1,1s1-0.4,1-1C26-65.6,25.6-66,25-66z M25-86c-0.6,0-1,0.4-1,1
			c0,0.6,0.4,1,1,1s1-0.4,1-1C26-85.6,25.6-86,25-86z M20-91c-0.6,0-1,0.4-1,1c0,0.6,0.4,1,1,1s1-0.4,1-1C21-90.6,20.6-91,20-91z
			 M15-56c-0.6,0-1,0.4-1,1c0,0.6,0.4,1,1,1s1-0.4,1-1C16-55.6,15.6-56,15-56z M15-46c-0.6,0-1,0.4-1,1c0,0.6,0.4,1,1,1s1-0.4,1-1
			C16-45.6,15.6-46,15-46z M15-36c-0.6,0-1,0.4-1,1c0,0.6,0.4,1,1,1s1-0.4,1-1C16-35.6,15.6-36,15-36z M15-66c-0.6,0-1,0.4-1,1
			c0,0.6,0.4,1,1,1s1-0.4,1-1C16-65.6,15.6-66,15-66z M15-76c-0.6,0-1,0.4-1,1c0,0.6,0.4,1,1,1s1-0.4,1-1C16-75.6,15.6-76,15-76z
			 M15-86c-0.6,0-1,0.4-1,1c0,0.6,0.4,1,1,1s1-0.4,1-1C16-85.6,15.6-86,15-86z M15-16c-0.6,0-1,0.4-1,1c0,0.6,0.4,1,1,1s1-0.4,1-1
			C16-15.6,15.6-16,15-16z M15-26c-0.6,0-1,0.4-1,1c0,0.6,0.4,1,1,1s1-0.4,1-1C16-25.6,15.6-26,15-26z M15-96c-0.6,0-1,0.4-1,1
			c0,0.6,0.4,1,1,1s1-0.4,1-1C16-95.6,15.6-96,15-96z M20-31c-0.6,0-1,0.4-1,1c0,0.6,0.4,1,1,1s1-0.4,1-1C21-30.6,20.6-31,20-31z
			 M15-6c-0.6,0-1,0.4-1,1c0,0.6,0.4,1,1,1s1-0.4,1-1C16-5.6,15.6-6,15-6z M20-21c-0.6,0-1,0.4-1,1c0,0.6,0.4,1,1,1s1-0.4,1-1
			C21-20.6,20.6-21,20-21z M20-51c-0.6,0-1,0.4-1,1c0,0.6,0.4,1,1,1s1-0.4,1-1C21-50.6,20.6-51,20-51z M95-46c-0.6,0-1,0.4-1,1
			c0,0.6,0.4,1,1,1s1-0.4,1-1C96-45.6,95.6-46,95-46z M95-36c-0.6,0-1,0.4-1,1c0,0.6,0.4,1,1,1s1-0.4,1-1C96-35.6,95.6-36,95-36z
			 M95-56c-0.6,0-1,0.4-1,1c0,0.6,0.4,1,1,1s1-0.4,1-1C96-55.6,95.6-56,95-56z M95-86c-0.6,0-1,0.4-1,1c0,0.6,0.4,1,1,1s1-0.4,1-1
			C96-85.6,95.6-86,95-86z M95-26c-0.6,0-1,0.4-1,1c0,0.6,0.4,1,1,1s1-0.4,1-1C96-25.6,95.6-26,95-26z M95-66c-0.6,0-1,0.4-1,1
			c0,0.6,0.4,1,1,1s1-0.4,1-1C96-65.6,95.6-66,95-66z M95-16c-0.6,0-1,0.4-1,1c0,0.6,0.4,1,1,1s1-0.4,1-1C96-15.6,95.6-16,95-16z
			 M99-80c0,0.6,0.4,1,1,1v-2C99.4-81,99-80.6,99-80z M99-70c0,0.6,0.4,1,1,1v-2C99.4-71,99-70.6,99-70z M99-90c0,0.6,0.4,1,1,1v-2
			C99.4-91,99-90.6,99-90z M95-76c-0.6,0-1,0.4-1,1c0,0.6,0.4,1,1,1s1-0.4,1-1C96-75.6,95.6-76,95-76z M95-96c-0.6,0-1,0.4-1,1
			c0,0.6,0.4,1,1,1s1-0.4,1-1C96-95.6,95.6-96,95-96z M95-6c-0.6,0-1,0.4-1,1c0,0.6,0.4,1,1,1s1-0.4,1-1C96-5.6,95.6-6,95-6z M99-60
			c0,0.6,0.4,1,1,1v-2C99.4-61,99-60.6,99-60z M85-6c-0.6,0-1,0.4-1,1c0,0.6,0.4,1,1,1s1-0.4,1-1C86-5.6,85.6-6,85-6z M85-96
			c-0.6,0-1,0.4-1,1c0,0.6,0.4,1,1,1s1-0.4,1-1C86-95.6,85.6-96,85-96z M90-31c-0.6,0-1,0.4-1,1c0,0.6,0.4,1,1,1s1-0.4,1-1
			C91-30.6,90.6-31,90-31z M85-26c-0.6,0-1,0.4-1,1c0,0.6,0.4,1,1,1s1-0.4,1-1C86-25.6,85.6-26,85-26z M90-11c-0.6,0-1,0.4-1,1
			c0,0.6,0.4,1,1,1s1-0.4,1-1C91-10.6,90.6-11,90-11z M90-21c-0.6,0-1,0.4-1,1c0,0.6,0.4,1,1,1s1-0.4,1-1C91-20.6,90.6-21,90-21z
			 M85-16c-0.6,0-1,0.4-1,1c0,0.6,0.4,1,1,1s1-0.4,1-1C86-15.6,85.6-16,85-16z M90-81c-0.6,0-1,0.4-1,1c0,0.6,0.4,1,1,1s1-0.4,1-1
			C91-80.6,90.6-81,90-81z M90-91c-0.6,0-1,0.4-1,1c0,0.6,0.4,1,1,1s1-0.4,1-1C91-90.6,90.6-91,90-91z M90-71c-0.6,0-1,0.4-1,1
			c0,0.6,0.4,1,1,1s1-0.4,1-1C91-70.6,90.6-71,90-71z M90-41c-0.6,0-1,0.4-1,1c0,0.6,0.4,1,1,1s1-0.4,1-1C91-40.6,90.6-41,90-41z
			 M90-51c-0.6,0-1,0.4-1,1c0,0.6,0.4,1,1,1s1-0.4,1-1C91-50.6,90.6-51,90-51z M90-61c-0.6,0-1,0.4-1,1c0,0.6,0.4,1,1,1s1-0.4,1-1
			C91-60.6,90.6-61,90-61z M80-99c0.6,0,1-0.4,1-1h-2C79-99.4,79.4-99,80-99z M20-1c-0.6,0-1,0.4-1,1h2C21-0.6,20.6-1,20-1z M99-50
			c0,0.6,0.4,1,1,1v-2C99.4-51,99-50.6,99-50z M10-1C9.4-1,9-0.6,9,0h2C11-0.6,10.6-1,10-1z M0-1v1h1C1-0.6,0.6-1,0-1z M0-99
			c0.6,0,1-0.4,1-1H0V-99z M40-1c-0.6,0-1,0.4-1,1h2C41-0.6,40.6-1,40-1z M10-99c0.6,0,1-0.4,1-1H9C9-99.4,9.4-99,10-99z M90-1
			c-0.6,0-1,0.4-1,1h2C91-0.6,90.6-1,90-1z M80-1c-0.6,0-1,0.4-1,1h2C81-0.6,80.6-1,80-1z M99,0h1v-1C99.4-1,99-0.6,99,0z M50-1
			c-0.6,0-1,0.4-1,1h2C51-0.6,50.6-1,50-1z M60-1c-0.6,0-1,0.4-1,1h2C61-0.6,60.6-1,60-1z M70-1c-0.6,0-1,0.4-1,1h2
			C71-0.6,70.6-1,70-1z M30-1c-0.6,0-1,0.4-1,1h2C31-0.6,30.6-1,30-1z M99-20c0,0.6,0.4,1,1,1v-2C99.4-21,99-20.6,99-20z M99-10
			c0,0.6,0.4,1,1,1v-2C99.4-11,99-10.6,99-10z M99-100c0,0.6,0.4,1,1,1v-1H99z M99-30c0,0.6,0.4,1,1,1v-2C99.4-31,99-30.6,99-30z
			 M90-99c0.6,0,1-0.4,1-1h-2C89-99.4,89.4-99,90-99z M99-40c0,0.6,0.4,1,1,1v-2C99.4-41,99-40.6,99-40z M20-99c0.6,0,1-0.4,1-1h-2
			C19-99.4,19.4-99,20-99z M50-99c0.6,0,1-0.4,1-1h-2C49-99.4,49.4-99,50-99z M40-99c0.6,0,1-0.4,1-1h-2C39-99.4,39.4-99,40-99z
			 M30-99c0.6,0,1-0.4,1-1h-2C29-99.4,29.4-99,30-99z M85-36c-0.6,0-1,0.4-1,1c0,0.6,0.4,1,1,1s1-0.4,1-1C86-35.6,85.6-36,85-36z
			 M70-99c0.6,0,1-0.4,1-1h-2C69-99.4,69.4-99,70-99z M60-99c0.6,0,1-0.4,1-1h-2C59-99.4,59.4-99,60-99z M65-76c-0.6,0-1,0.4-1,1
			c0,0.6,0.4,1,1,1s1-0.4,1-1C66-75.6,65.6-76,65-76z M65-6c-0.6,0-1,0.4-1,1c0,0.6,0.4,1,1,1s1-0.4,1-1C66-5.6,65.6-6,65-6z M65-36
			c-0.6,0-1,0.4-1,1c0,0.6,0.4,1,1,1s1-0.4,1-1C66-35.6,65.6-36,65-36z M65-16c-0.6,0-1,0.4-1,1c0,0.6,0.4,1,1,1s1-0.4,1-1
			C66-15.6,65.6-16,65-16z M65-26c-0.6,0-1,0.4-1,1c0,0.6,0.4,1,1,1s1-0.4,1-1C66-25.6,65.6-26,65-26z M65-66c-0.6,0-1,0.4-1,1
			c0,0.6,0.4,1,1,1s1-0.4,1-1C66-65.6,65.6-66,65-66z M65-56c-0.6,0-1,0.4-1,1c0,0.6,0.4,1,1,1s1-0.4,1-1C66-55.6,65.6-56,65-56z
			 M65-46c-0.6,0-1,0.4-1,1c0,0.6,0.4,1,1,1s1-0.4,1-1C66-45.6,65.6-46,65-46z M70-41c-0.6,0-1,0.4-1,1c0,0.6,0.4,1,1,1s1-0.4,1-1
			C71-40.6,70.6-41,70-41z M65-96c-0.6,0-1,0.4-1,1c0,0.6,0.4,1,1,1s1-0.4,1-1C66-95.6,65.6-96,65-96z M70-61c-0.6,0-1,0.4-1,1
			c0,0.6,0.4,1,1,1s1-0.4,1-1C71-60.6,70.6-61,70-61z M70-51c-0.6,0-1,0.4-1,1c0,0.6,0.4,1,1,1s1-0.4,1-1C71-50.6,70.6-51,70-51z
			 M70-31c-0.6,0-1,0.4-1,1c0,0.6,0.4,1,1,1s1-0.4,1-1C71-30.6,70.6-31,70-31z M70-21c-0.6,0-1,0.4-1,1c0,0.6,0.4,1,1,1s1-0.4,1-1
			C71-20.6,70.6-21,70-21z M60-61c-0.6,0-1,0.4-1,1c0,0.6,0.4,1,1,1s1-0.4,1-1C61-60.6,60.6-61,60-61z M60-51c-0.6,0-1,0.4-1,1
			c0,0.6,0.4,1,1,1s1-0.4,1-1C61-50.6,60.6-51,60-51z M65-86c-0.6,0-1,0.4-1,1c0,0.6,0.4,1,1,1s1-0.4,1-1C66-85.6,65.6-86,65-86z
			 M60-41c-0.6,0-1,0.4-1,1c0,0.6,0.4,1,1,1s1-0.4,1-1C61-40.6,60.6-41,60-41z M60-21c-0.6,0-1,0.4-1,1c0,0.6,0.4,1,1,1s1-0.4,1-1
			C61-20.6,60.6-21,60-21z M55-6c-0.6,0-1,0.4-1,1c0,0.6,0.4,1,1,1s1-0.4,1-1C56-5.6,55.6-6,55-6z M55-96c-0.6,0-1,0.4-1,1
			c0,0.6,0.4,1,1,1s1-0.4,1-1C56-95.6,55.6-96,55-96z M60-31c-0.6,0-1,0.4-1,1c0,0.6,0.4,1,1,1s1-0.4,1-1C61-30.6,60.6-31,60-31z
			 M60-11c-0.6,0-1,0.4-1,1c0,0.6,0.4,1,1,1s1-0.4,1-1C61-10.6,60.6-11,60-11z M55-16c-0.6,0-1,0.4-1,1c0,0.6,0.4,1,1,1s1-0.4,1-1
			C56-15.6,55.6-16,55-16z M60-91c-0.6,0-1,0.4-1,1c0,0.6,0.4,1,1,1s1-0.4,1-1C61-90.6,60.6-91,60-91z M70-71c-0.6,0-1,0.4-1,1
			c0,0.6,0.4,1,1,1s1-0.4,1-1C71-70.6,70.6-71,70-71z M60-71c-0.6,0-1,0.4-1,1c0,0.6,0.4,1,1,1s1-0.4,1-1C61-70.6,60.6-71,60-71z
			 M60-81c-0.6,0-1,0.4-1,1c0,0.6,0.4,1,1,1s1-0.4,1-1C61-80.6,60.6-81,60-81z M80-11c-0.6,0-1,0.4-1,1c0,0.6,0.4,1,1,1s1-0.4,1-1
			C81-10.6,80.6-11,80-11z M80-31c-0.6,0-1,0.4-1,1c0,0.6,0.4,1,1,1s1-0.4,1-1C81-30.6,80.6-31,80-31z M80-61c-0.6,0-1,0.4-1,1
			c0,0.6,0.4,1,1,1s1-0.4,1-1C81-60.6,80.6-61,80-61z M80-71c-0.6,0-1,0.4-1,1c0,0.6,0.4,1,1,1s1-0.4,1-1C81-70.6,80.6-71,80-71z
			 M80-21c-0.6,0-1,0.4-1,1c0,0.6,0.4,1,1,1s1-0.4,1-1C81-20.6,80.6-21,80-21z M80-41c-0.6,0-1,0.4-1,1c0,0.6,0.4,1,1,1s1-0.4,1-1
			C81-40.6,80.6-41,80-41z M80-81c-0.6,0-1,0.4-1,1c0,0.6,0.4,1,1,1s1-0.4,1-1C81-80.6,80.6-81,80-81z M80-51c-0.6,0-1,0.4-1,1
			c0,0.6,0.4,1,1,1s1-0.4,1-1C81-50.6,80.6-51,80-51z M85-66c-0.6,0-1,0.4-1,1c0,0.6,0.4,1,1,1s1-0.4,1-1C86-65.6,85.6-66,85-66z
			 M85-56c-0.6,0-1,0.4-1,1c0,0.6,0.4,1,1,1s1-0.4,1-1C86-55.6,85.6-56,85-56z M80-91c-0.6,0-1,0.4-1,1c0,0.6,0.4,1,1,1s1-0.4,1-1
			C81-90.6,80.6-91,80-91z M85-86c-0.6,0-1,0.4-1,1c0,0.6,0.4,1,1,1s1-0.4,1-1C86-85.6,85.6-86,85-86z M85-76c-0.6,0-1,0.4-1,1
			c0,0.6,0.4,1,1,1s1-0.4,1-1C86-75.6,85.6-76,85-76z M85-46c-0.6,0-1,0.4-1,1c0,0.6,0.4,1,1,1s1-0.4,1-1C86-45.6,85.6-46,85-46z
			 M70-91c-0.6,0-1,0.4-1,1c0,0.6,0.4,1,1,1s1-0.4,1-1C71-90.6,70.6-91,70-91z M75-76c-0.6,0-1,0.4-1,1c0,0.6,0.4,1,1,1s1-0.4,1-1
			C76-75.6,75.6-76,75-76z M75-56c-0.6,0-1,0.4-1,1c0,0.6,0.4,1,1,1s1-0.4,1-1C76-55.6,75.6-56,75-56z M75-66c-0.6,0-1,0.4-1,1
			c0,0.6,0.4,1,1,1s1-0.4,1-1C76-65.6,75.6-66,75-66z M75-86c-0.6,0-1,0.4-1,1c0,0.6,0.4,1,1,1s1-0.4,1-1C76-85.6,75.6-86,75-86z
			 M70-81c-0.6,0-1,0.4-1,1c0,0.6,0.4,1,1,1s1-0.4,1-1C71-80.6,70.6-81,70-81z M70-11c-0.6,0-1,0.4-1,1c0,0.6,0.4,1,1,1s1-0.4,1-1
			C71-10.6,70.6-11,70-11z M75-46c-0.6,0-1,0.4-1,1c0,0.6,0.4,1,1,1s1-0.4,1-1C76-45.6,75.6-46,75-46z M75-16c-0.6,0-1,0.4-1,1
			c0,0.6,0.4,1,1,1s1-0.4,1-1C76-15.6,75.6-16,75-16z M75-6c-0.6,0-1,0.4-1,1c0,0.6,0.4,1,1,1s1-0.4,1-1C76-5.6,75.6-6,75-6z M75-96
			c-0.6,0-1,0.4-1,1c0,0.6,0.4,1,1,1s1-0.4,1-1C76-95.6,75.6-96,75-96z M75-26c-0.6,0-1,0.4-1,1c0,0.6,0.4,1,1,1s1-0.4,1-1
			C76-25.6,75.6-26,75-26z M75-36c-0.6,0-1,0.4-1,1c0,0.6,0.4,1,1,1s1-0.4,1-1C76-35.6,75.6-36,75-36z"/>
	</g>
</pattern>
<rect class="st2" width="1796" height="156"/>
</svg>
